<svg width="144" height="147" viewBox="0 0 144 147" fill="none" xmlns="http://www.w3.org/2000/svg">
<path d="M75.4233 135.868L65.6978 112.393C65.6833 112.357 65.6689 112.314 65.6544 112.278C63.346 105.808 54.2862 104.224 54.1922 104.202C53.512 104.086 52.9041 103.703 52.5134 103.131C52.1226 102.559 51.9779 101.857 52.1226 101.184L62.3185 52.3976C62.4994 51.5365 63.1072 50.8346 63.9322 50.5379C64.7571 50.234 65.6761 50.3859 66.3635 50.9286L105.526 81.7984C106.076 82.2326 106.423 82.8839 106.481 83.5858C106.539 84.2877 106.3 84.9824 105.823 85.5034C99.4694 92.414 103.978 101.409 104.021 101.496C104.05 101.546 104.072 101.597 104.093 101.655L113.03 122.43L108.377 124.434L99.4694 103.724C98.9194 102.61 94.4402 92.8989 100.396 84.2081L66.4431 57.4413L57.586 99.8312C61.3054 100.953 67.9845 103.84 70.4014 110.512L80.0979 133.936L75.4161 135.875L75.4233 135.868Z" fill="#999999"/>
<path d="M73.1164 138.885C38.0207 138.885 9.46643 110.331 9.46643 75.2352C9.46643 40.1394 38.0207 11.5852 73.1164 11.5852C108.212 11.5852 136.766 40.1394 136.766 75.2352C136.766 110.331 108.212 138.885 73.1164 138.885ZM73.1164 16.6506C40.8138 16.6506 14.5318 42.9326 14.5318 75.2352C14.5318 107.538 40.8138 133.82 73.1164 133.82C105.419 133.82 131.701 107.538 131.701 75.2352C131.701 42.9326 105.419 16.6506 73.1164 16.6506Z" fill="#25A0F4"/>
<path d="M136.768 137.85H7.23889V8.32153H136.768V137.85ZM12.3043 132.785H131.702V13.3869H12.3043V132.785Z" fill="#25A0F4"/>
<path d="M14.1132 4.34155H4.70603C3.50709 4.34155 2.53516 5.31349 2.53516 6.51243V15.9195C2.53516 17.1185 3.50709 18.0904 4.70603 18.0904H14.1132C15.3121 18.0904 16.284 17.1185 16.284 15.9195V6.51243C16.284 5.31349 15.3121 4.34155 14.1132 4.34155Z" fill="white"/>
<path d="M14.1109 20.6231H4.7038C2.11323 20.6231 0.000244141 18.5101 0.000244141 15.9195V6.5124C0.000244141 3.92182 2.11323 1.80884 4.7038 1.80884H14.1109C16.7015 1.80884 18.8145 3.92182 18.8145 6.5124V15.9195C18.8145 18.5101 16.7015 20.6231 14.1109 20.6231ZM5.06562 15.5577H13.7491V6.87421H5.06562V15.5577Z" fill="#25A0F4"/>
<path d="M78.5142 2.53271H65.489C64.29 2.53271 63.3181 3.50465 63.3181 4.70359V17.7288C63.3181 18.9278 64.29 19.8997 65.489 19.8997H78.5142C79.7132 19.8997 80.6851 18.9278 80.6851 17.7288V4.70359C80.6851 3.50465 79.7132 2.53271 78.5142 2.53271Z" fill="white"/>
<path d="M78.5148 22.4324H65.4896C62.899 22.4324 60.786 20.3194 60.786 17.7288V4.70356C60.786 2.11298 62.899 0 65.4896 0H78.5148C81.1054 0 83.2184 2.11298 83.2184 4.70356V17.7288C83.2184 20.3194 81.1054 22.4324 78.5148 22.4324ZM65.8514 17.367H78.153V5.06537H65.8514V17.367Z" fill="#25A0F4"/>
<path d="M78.5142 126.272H65.489C64.29 126.272 63.3181 127.244 63.3181 128.443V141.469C63.3181 142.668 64.29 143.639 65.489 143.639H78.5142C79.7132 143.639 80.6851 142.668 80.6851 141.469V128.443C80.6851 127.244 79.7132 126.272 78.5142 126.272Z" fill="white"/>
<path d="M78.5148 146.172H65.4896C62.899 146.172 60.786 144.059 60.786 141.469V128.443C60.786 125.853 62.899 123.74 65.4896 123.74H78.5148C81.1054 123.74 83.2184 125.853 83.2184 128.443V141.469C83.2184 144.059 81.1054 146.172 78.5148 146.172ZM65.8514 141.107H78.153V128.805H65.8514V141.107Z" fill="#25A0F4"/>
<path d="M139.299 4.34155H129.892C128.693 4.34155 127.721 5.31349 127.721 6.51243V15.9195C127.721 17.1185 128.693 18.0904 129.892 18.0904H139.299C140.498 18.0904 141.47 17.1185 141.47 15.9195V6.51243C141.47 5.31349 140.498 4.34155 139.299 4.34155Z" fill="white"/>
<path d="M139.297 20.6231H129.89C127.299 20.6231 125.186 18.5101 125.186 15.9195V6.5124C125.186 3.92182 127.299 1.80884 129.89 1.80884H139.297C141.887 1.80884 144 3.92182 144 6.5124V15.9195C144 18.5101 141.887 20.6231 139.297 20.6231ZM130.252 15.5577H138.935V6.87421H130.252V15.5577Z" fill="#25A0F4"/>
<path d="M14.1132 128.081H4.70603C3.50709 128.081 2.53516 129.053 2.53516 130.252V139.659C2.53516 140.858 3.50709 141.83 4.70603 141.83H14.1132C15.3121 141.83 16.284 140.858 16.284 139.659V130.252C16.284 129.053 15.3121 128.081 14.1132 128.081Z" fill="white"/>
<path d="M14.1109 144.363H4.7038C2.11323 144.363 0.000244141 142.25 0.000244141 139.659V130.252C0.000244141 127.662 2.11323 125.549 4.7038 125.549H14.1109C16.7015 125.549 18.8145 127.662 18.8145 130.252V139.659C18.8145 142.25 16.7015 144.363 14.1109 144.363ZM5.06562 139.298H13.7491V130.614H5.06562V139.298Z" fill="#25A0F4"/>
<path d="M139.299 128.081H129.892C128.693 128.081 127.721 129.053 127.721 130.252V139.659C127.721 140.858 128.693 141.83 129.892 141.83H139.299C140.498 141.83 141.47 140.858 141.47 139.659V130.252C141.47 129.053 140.498 128.081 139.299 128.081Z" fill="white"/>
<path d="M139.297 144.363H129.89C127.299 144.363 125.186 142.25 125.186 139.659V130.252C125.186 127.662 127.299 125.549 129.89 125.549H139.297C141.887 125.549 144 127.662 144 130.252V139.659C144 142.25 141.887 144.363 139.297 144.363ZM130.252 139.298H138.935V130.614H130.252V139.298Z" fill="#25A0F4"/>
<path d="M73.093 82.5004L62.4268 53.8014C62.3834 53.6929 62.3544 53.5771 62.3255 53.4613C62.1518 52.6653 60.7407 45.5376 64.7134 41.3623C66.935 39.025 70.213 38.1929 74.439 38.902C84.0125 40.494 95.0623 38.2942 98.1811 35.3273C98.4922 35.0378 98.8468 34.6109 98.8034 34.2491L103.833 33.6702C103.985 35.0161 103.739 37.0351 101.669 39.0033C96.5457 43.8806 83.0211 45.4725 73.6068 43.9022C71.1392 43.4898 69.3736 43.8082 68.3822 44.8574C66.6238 46.7027 66.9567 50.726 67.2389 52.2239L77.8328 80.742L73.0858 82.5076L73.093 82.5004Z" fill="#999999"/>
<path d="M77.067 94.2811C72.5877 94.2811 68.9407 90.6341 68.9407 86.1549C68.9407 81.6756 72.5877 78.0286 77.067 78.0286C81.5462 78.0286 85.1933 81.6756 85.1933 86.1549C85.1933 90.6341 81.5462 94.2811 77.067 94.2811ZM77.067 83.0939C75.3809 83.0939 74.006 84.4688 74.006 86.1549C74.006 87.8409 75.3809 89.2158 77.067 89.2158C78.753 89.2158 80.1279 87.8409 80.1279 86.1549C80.1279 84.4688 78.753 83.0939 77.067 83.0939Z" fill="#999999"/>
<path d="M102.496 104.338L71.0028 117.927L73.0096 122.578L104.503 108.989L102.496 104.338Z" fill="#999999"/>
</svg>
