<svg width="59" height="14" viewBox="0 0 59 14" fill="none" xmlns="http://www.w3.org/2000/svg">
<path d="M5.01562 5.85156L5.45312 6.08594C6.09375 6.42969 6.66406 6.79427 7.16406 7.17969C7.66406 7.5599 8.04948 7.99219 8.32031 8.47656C8.54427 8.88281 8.65625 9.34375 8.65625 9.85938C8.65625 9.96875 8.65104 10.0807 8.64062 10.1953C8.57292 10.9297 8.31771 11.5521 7.875 12.0625C7.4375 12.5729 6.86719 12.9479 6.16406 13.1875C5.63281 13.3698 5.0599 13.4609 4.44531 13.4609C4.2474 13.4609 4.04427 13.4505 3.83594 13.4297C2.80469 13.3411 1.9349 13.0443 1.22656 12.5391C0.950521 12.3464 0.708333 12.1328 0.5 11.8984L1.71875 10.2656C1.91667 10.5156 2.15365 10.7318 2.42969 10.9141C2.89844 11.2214 3.4349 11.4036 4.03906 11.4609C4.17448 11.4714 4.30469 11.4766 4.42969 11.4766C4.96615 11.4766 5.46094 11.3594 5.91406 11.125C6.36719 10.8854 6.61458 10.5286 6.65625 10.0547C6.66146 10.013 6.66406 9.97396 6.66406 9.9375C6.66406 9.6875 6.58594 9.44792 6.42969 9.21875C6.27865 8.98438 6.0599 8.75521 5.77344 8.53125C5.49219 8.30208 5.17708 8.08594 4.82812 7.88281C4.51562 7.70052 4.20312 7.52604 3.89062 7.35938L3.76562 7.28125C3.40625 7.09375 3.05208 6.89062 2.70312 6.67188C2.35938 6.44792 2.04948 6.19531 1.77344 5.91406C1.4974 5.6276 1.28385 5.29948 1.13281 4.92969C1.00781 4.64323 0.945312 4.31771 0.945312 3.95312C0.945312 3.85417 0.950521 3.7526 0.960938 3.64844C1.02344 2.96615 1.25781 2.38021 1.66406 1.89062C2.07031 1.40104 2.59375 1.03646 3.23438 0.796875C3.72917 0.609375 4.26042 0.515625 4.82812 0.515625C4.98438 0.515625 5.14583 0.523438 5.3125 0.539062C6.20833 0.617188 6.95573 0.882812 7.55469 1.33594C7.73698 1.47656 7.90104 1.6276 8.04688 1.78906L6.875 3.36719C6.73438 3.19531 6.57552 3.04427 6.39844 2.91406C6.02865 2.65365 5.61458 2.5026 5.15625 2.46094C5.0625 2.45052 4.97135 2.44531 4.88281 2.44531C4.42448 2.44531 3.9974 2.57292 3.60156 2.82812C3.20573 3.07812 2.98698 3.42448 2.94531 3.86719C2.9401 3.90365 2.9375 3.94271 2.9375 3.98438C2.9375 4.22396 3.01562 4.44271 3.17188 4.64062C3.32812 4.83854 3.5599 5.03125 3.86719 5.21875C4.17969 5.40625 4.53906 5.60417 4.94531 5.8125L5.01562 5.85156Z" fill="#25A0F4"/>
<path d="M14.0312 6.8125L11.2188 13H9.53125L14.0312 3.25L18.5312 13H16.8438L14.0312 6.8125ZM20.5703 8.95117V13H19.0703V4H20.5703V8.04883L23.9453 4H25.8203L22.0703 8.5L25.8203 13H23.9453L20.5703 8.95117ZM29.3359 7.63867L29.6641 7.81445C30.1445 8.07227 30.5723 8.3457 30.9473 8.63477C31.3223 8.91992 31.6113 9.24414 31.8145 9.60742C31.9824 9.91211 32.0664 10.2578 32.0664 10.6445C32.0664 10.7266 32.0625 10.8105 32.0547 10.8965C32.0039 11.4473 31.8125 11.9141 31.4805 12.2969C31.1523 12.6797 30.7246 12.9609 30.1973 13.1406C29.7988 13.2773 29.3691 13.3457 28.9082 13.3457C28.7598 13.3457 28.6074 13.3379 28.4512 13.3223C27.6777 13.2559 27.0254 13.0332 26.4941 12.6543C26.2871 12.5098 26.1055 12.3496 25.9492 12.1738L26.8633 10.9492C27.0117 11.1367 27.1895 11.2988 27.3965 11.4355C27.748 11.666 28.1504 11.8027 28.6035 11.8457C28.7051 11.8535 28.8027 11.8574 28.8965 11.8574C29.2988 11.8574 29.6699 11.7695 30.0098 11.5938C30.3496 11.4141 30.5352 11.1465 30.5664 10.791C30.5703 10.7598 30.5723 10.7305 30.5723 10.7031C30.5723 10.5156 30.5137 10.3359 30.3965 10.1641C30.2832 9.98828 30.1191 9.81641 29.9043 9.64844C29.6934 9.47656 29.457 9.31445 29.1953 9.16211C28.9609 9.02539 28.7266 8.89453 28.4922 8.76953L28.3984 8.71094C28.1289 8.57031 27.8633 8.41797 27.6016 8.25391C27.3438 8.08594 27.1113 7.89648 26.9043 7.68555C26.6973 7.4707 26.5371 7.22461 26.4238 6.94727C26.3301 6.73242 26.2832 6.48828 26.2832 6.21484C26.2832 6.14062 26.2871 6.06445 26.2949 5.98633C26.3418 5.47461 26.5176 5.03516 26.8223 4.66797C27.127 4.30078 27.5195 4.02734 28 3.84766C28.3711 3.70703 28.7695 3.63672 29.1953 3.63672C29.3125 3.63672 29.4336 3.64258 29.5586 3.6543C30.2305 3.71289 30.791 3.91211 31.2402 4.25195C31.377 4.35742 31.5 4.4707 31.6094 4.5918L30.7305 5.77539C30.625 5.64648 30.5059 5.5332 30.373 5.43555C30.0957 5.24023 29.7852 5.12695 29.4414 5.0957C29.3711 5.08789 29.3027 5.08398 29.2363 5.08398C28.8926 5.08398 28.5723 5.17969 28.2754 5.37109C27.9785 5.55859 27.8145 5.81836 27.7832 6.15039C27.7793 6.17773 27.7773 6.20703 27.7773 6.23828C27.7773 6.41797 27.8359 6.58203 27.9531 6.73047C28.0703 6.87891 28.2441 7.02344 28.4746 7.16406C28.709 7.30469 28.9785 7.45312 29.2832 7.60938L29.3359 7.63867ZM34.6328 9.25V13H33.1328V4H34.6328V7.75H38.3828V4H39.8828V13H38.3828V9.25H34.6328ZM44.9336 6.8125L42.1211 13H40.4336L44.9336 3.25L49.4336 13H47.7461L44.9336 6.8125ZM51.4727 8.75195V13H49.9727V3.25L54.4727 10.75L58.9727 3.25V13H57.4727V8.75195L54.4727 13.75L51.4727 8.75195Z" fill="black"/>
</svg>
