<svg width="246" height="144" viewBox="0 0 246 144" fill="none" xmlns="http://www.w3.org/2000/svg">
<path d="M183.978 128.078H11.9646C5.36926 128.078 0 122.709 0 116.114V12.59C0 5.98768 5.36926 0.625488 11.9646 0.625488H183.971C190.566 0.625488 195.936 5.99473 195.936 12.59V116.114C195.936 122.709 190.566 128.078 183.971 128.078H183.978ZM11.9646 5.55082C8.08911 5.55082 4.93239 8.70756 4.93239 12.583V116.107C4.93239 119.982 8.08911 123.139 11.9646 123.139H183.971C187.846 123.139 191.003 119.982 191.003 116.107V12.583C191.003 8.70051 187.846 5.55082 183.971 5.55082H11.9646Z" fill="#25A0F4"/>
<path d="M192.975 102.543H1.77478V107.475H192.975V102.543Z" fill="#25A0F4"/>
<path d="M16.6463 118.742C18.4754 118.742 19.9581 117.259 19.9581 115.43C19.9581 113.601 18.4754 112.118 16.6463 112.118C14.8173 112.118 13.3346 113.601 13.3346 115.43C13.3346 117.259 14.8173 118.742 16.6463 118.742Z" fill="#25A0F4"/>
<path d="M28.7774 118.742C30.6065 118.742 32.0892 117.259 32.0892 115.43C32.0892 113.601 30.6065 112.118 28.7774 112.118C26.9484 112.118 25.4657 113.601 25.4657 115.43C25.4657 117.259 26.9484 118.742 28.7774 118.742Z" fill="#25A0F4"/>
<path d="M114.326 117.896H81.61C80.2501 117.896 79.1438 116.79 79.1438 115.43C79.1438 114.07 80.2501 112.964 81.61 112.964H114.326C115.686 112.964 116.792 114.07 116.792 115.43C116.792 116.79 115.686 117.896 114.326 117.896Z" fill="#25A0F4"/>
<path d="M125.981 143.263H69.9633C68.6033 143.263 67.4971 142.157 67.4971 140.797C67.4971 139.437 68.6033 138.331 69.9633 138.331H125.981C127.341 138.331 128.447 139.437 128.447 140.797C128.447 142.157 127.341 143.263 125.981 143.263Z" fill="#25A0F4"/>
<path d="M90.9266 142.558C89.5667 142.558 88.4604 141.452 88.4604 140.092V126.704C88.4604 125.344 89.5667 124.238 90.9266 124.238C92.2866 124.238 93.3928 125.344 93.3928 126.704V140.092C93.3928 141.452 92.2866 142.558 90.9266 142.558Z" fill="#25A0F4"/>
<path d="M105.018 142.558C103.658 142.558 102.552 141.452 102.552 140.092V126.704C102.552 125.344 103.658 124.238 105.018 124.238C106.378 124.238 107.484 125.344 107.484 126.704V140.092C107.484 141.452 106.378 142.558 105.018 142.558Z" fill="#25A0F4"/>
<path d="M208.145 82.3831C207.278 82.3831 205.664 82.0871 204.593 80.079C202.31 75.8371 199.02 72.5254 194.545 69.9535C192.981 69.0516 192.516 67.8255 192.396 66.9447C192.227 65.6764 192.664 64.4997 193.707 63.4568C195.511 61.6459 197.301 59.828 199.097 58.0101C202.064 55.0084 205.122 51.908 208.173 48.8781C213.852 43.234 219.919 38.3087 226.218 34.2289C228.297 32.8831 230.763 31.3822 233.737 30.6283L234.16 30.5226H237.225L237.887 30.8115C239.804 31.6359 241.255 33.0804 242.073 34.997L242.354 35.6593V38.971L242.192 39.4925C240.839 43.7696 238.416 47.2504 235.837 50.7454C230.362 58.158 225.274 64.7322 220.278 70.8554C217.467 74.294 214.395 77.7185 211.139 81.0302C210.259 81.9251 209.251 82.3831 208.145 82.3831Z" fill="#25A0F4"/>
<path d="M236.493 34.0458C237.585 34.5109 238.361 35.293 238.833 36.3852V38.4286C237.621 42.2547 235.338 45.4819 232.998 48.6527C227.995 55.4242 222.873 62.104 217.546 68.6289C214.727 72.0815 211.747 75.3863 208.625 78.5641C208.428 78.7685 208.273 78.8671 208.146 78.8671C207.977 78.8671 207.85 78.7121 207.695 78.4232C205.025 73.4697 201.149 69.6999 196.294 66.9096C195.724 66.5855 195.794 66.36 196.196 65.9513C201.015 61.1035 205.793 56.2063 210.641 51.3867C215.989 46.0738 221.788 41.2964 228.122 37.1955C230.145 35.8849 232.216 34.6588 234.591 34.0529H236.493M237.938 27.0066H233.71L232.857 27.225C229.525 28.0706 226.769 29.6771 224.289 31.2837C217.785 35.4973 211.521 40.5777 205.673 46.3909C202.608 49.4348 199.536 52.5493 196.562 55.5581C194.772 57.3689 192.983 59.1798 191.193 60.9837C188.762 63.4217 188.705 66.0711 188.889 67.424C189.072 68.7839 189.819 71.3206 192.771 73.0187C196.661 75.2524 199.507 78.1132 201.473 81.7631C203.489 85.5117 206.8 85.9134 208.132 85.9134C209.562 85.9134 211.683 85.4977 213.635 83.5036C216.968 80.1073 220.118 76.6053 222.993 73.0821C228.024 66.9096 233.146 60.2931 238.656 52.8382C241.419 49.1037 244.019 45.348 245.541 40.5636L245.872 39.5278V34.9477L245.301 33.616C244.117 30.8538 242.032 28.7611 239.262 27.5773L237.931 27.0066H237.938Z" fill="white"/>
<path d="M164.571 112.386C162.852 112.386 161.858 111.597 161.323 110.935C160.886 110.399 160.209 109.237 160.583 107.517L160.752 106.721L161.259 106.08C162.802 104.121 163.683 101.746 164.021 98.5967C164.134 97.582 164.169 96.5392 164.212 95.4259C164.254 94.2703 164.303 93.0654 164.437 91.8393C164.916 87.3297 166.903 83.5459 170.342 80.5935C173.323 78.0287 176.937 76.6758 180.778 76.6758C180.94 76.6758 181.102 76.6758 181.264 76.6758C189.839 76.9224 196.589 82.954 197.674 91.3391C198.28 96.0037 197.287 100.14 194.729 103.635C192.629 106.503 189.698 108.06 187.683 108.983C183.857 110.737 179.58 111.801 174.612 112.238C174.563 112.252 174.077 112.365 174.077 112.365H169.081C167.601 112.365 166.114 112.365 164.635 112.379H164.564L164.571 112.386Z" fill="#25A0F4"/>
<path d="M180.786 80.1988C180.913 80.1988 181.039 80.1988 181.166 80.1988C187.959 80.3961 193.314 85.0748 194.181 91.7899C194.639 95.3342 194.026 98.6318 191.891 101.549C190.439 103.529 188.41 104.776 186.218 105.777C182.371 107.538 178.291 108.391 174.099 108.743C173.958 108.757 173.817 108.807 173.676 108.842C172.154 108.842 170.639 108.842 169.117 108.842C167.595 108.842 166.108 108.842 164.607 108.863C164.593 108.863 164.586 108.863 164.572 108.863C164.093 108.863 163.924 108.743 164.03 108.264C166.179 105.537 167.158 102.395 167.525 98.9841C167.771 96.7293 167.701 94.4674 167.94 92.2197C168.321 88.6261 169.899 85.6244 172.633 83.2709C174.98 81.2557 177.728 80.2058 180.779 80.2058M180.779 73.1595C176.079 73.1595 171.675 74.8084 168.046 77.9299C163.959 81.4389 161.5 86.1247 160.936 91.4798C160.795 92.8257 160.746 94.0869 160.697 95.2989C160.654 96.3488 160.619 97.3353 160.521 98.2302C160.253 100.689 159.612 102.493 158.498 103.909L157.484 105.192L157.138 106.791C156.462 109.941 157.751 112.132 158.583 113.161C159.414 114.19 161.296 115.916 164.572 115.916H164.685C166.158 115.902 167.637 115.895 169.117 115.895H171.386H173.676H174.479L175.191 115.733C180.447 115.247 185.02 114.091 189.157 112.196C191.531 111.111 194.991 109.251 197.577 105.727C200.684 101.486 201.896 96.4968 201.178 90.902C199.867 80.7554 191.721 73.4625 181.378 73.1666C181.18 73.1666 180.99 73.1595 180.793 73.1595H180.779Z" fill="white"/>
<path d="M192.714 69.7844C192.82 69.8337 192.961 69.8831 193.088 69.9465C198.182 72.6029 202.128 76.3938 204.608 81.6362C204.792 82.0238 204.777 82.2915 204.453 82.5945C202.452 84.4477 200.465 86.3079 198.478 88.1822C198.02 88.612 197.78 88.5627 197.583 87.9497C196.561 84.7366 194.744 82.052 192.122 79.917C190.537 78.6275 188.782 77.6621 186.845 77.0209C185.999 76.7391 186.006 76.7038 186.619 76.0485C188.43 74.1108 190.234 72.1661 192.052 70.2283C192.228 70.0381 192.376 69.7844 192.721 69.7844H192.714Z" fill="#25A0F4"/>
<path d="M176.763 36.1596H19.1805C15.4178 36.1596 12.3597 33.1015 12.3597 29.3388V20.7776C12.3597 17.0149 15.4178 13.9568 19.1805 13.9568H176.77C180.533 13.9568 183.591 17.0149 183.591 20.7776V29.3388C183.591 33.1015 180.533 36.1596 176.77 36.1596H176.763ZM19.1735 15.3731C16.1929 15.3731 13.7619 17.797 13.7619 20.7846V29.3458C13.7619 32.3264 16.1859 34.7574 19.1735 34.7574H176.763C179.744 34.7574 182.175 32.3334 182.175 29.3458V20.7846C182.175 17.8041 179.751 15.3731 176.763 15.3731H19.1805H19.1735Z" fill="#999999"/>
<path d="M183.056 46.7291H13.0644C12.6768 46.7291 12.3597 46.412 12.3597 46.0245C12.3597 45.6369 12.6768 45.3198 13.0644 45.3198H183.056C183.443 45.3198 183.76 45.6369 183.76 46.0245C183.76 46.412 183.443 46.7291 183.056 46.7291Z" fill="#999999"/>
<path d="M183.056 52.3662H13.0644C12.6768 52.3662 12.3597 52.0491 12.3597 51.6615C12.3597 51.274 12.6768 50.9569 13.0644 50.9569H183.056C183.443 50.9569 183.76 51.274 183.76 51.6615C183.76 52.0491 183.443 52.3662 183.056 52.3662Z" fill="#999999"/>
<path d="M183.056 58.0032H13.0644C12.6768 58.0032 12.3597 57.6862 12.3597 57.2986C12.3597 56.9111 12.6768 56.594 13.0644 56.594H183.056C183.443 56.594 183.76 56.9111 183.76 57.2986C183.76 57.6862 183.443 58.0032 183.056 58.0032Z" fill="#999999"/>
<path d="M63.269 63.6401H13.0644C12.6768 63.6401 12.3597 63.323 12.3597 62.9355C12.3597 62.5479 12.6768 62.2308 13.0644 62.2308H63.269C63.6566 62.2308 63.9736 62.5479 63.9736 62.9355C63.9736 63.323 63.6566 63.6401 63.269 63.6401Z" fill="#999999"/>
<path d="M53.9242 69.277H14.8315C13.5629 69.277 12.5344 70.3054 12.5344 71.5741V76.8447C12.5344 78.1133 13.5629 79.1418 14.8315 79.1418H53.9242C55.1928 79.1418 56.2213 78.1133 56.2213 76.8447V71.5741C56.2213 70.3054 55.1928 69.277 53.9242 69.277Z" fill="#999999"/>
</svg>
